# xmcd
#
# Track frame offsets:
#	150
#	23225
#	44780
#	64082
#
# Disc length: 1045 seconds
#
# Revision: 1
# Processed by: cddbd v1.4PL0 Copyright (c) Steve Scherf et al.
# Submitted via: CDmax 1.8
#
DISCID=34041304
DTITLE=Café Tacuba - Vale Callampa
DYEAR=2002
DGENRE=Misc
TTITLE0=Déjate caer
TTITLE1=Olor a gas
TTITLE2=Amor violento
TTITLE3=Tírate
EXTD=
EXTT0=
EXTT1=
EXTT2=
EXTT3=
PLAYORDER=
